<?xml version="1.0" encoding="utf-8"?>
<!-- Generator: Adobe Illustrator 16.0.4, SVG Export Plug-In . SVG Version: 6.00 Build 0)  -->
<!DOCTYPE svg PUBLIC "-//W3C//DTD SVG 1.1//EN" "http://www.w3.org/Graphics/SVG/1.1/DTD/svg11.dtd">
<svg version="1.1" id="Ebene_1" xmlns="http://www.w3.org/2000/svg" xmlns:xlink="http://www.w3.org/1999/xlink" x="0px" y="0px"
	 width="1024px" height="1024px" viewBox="0 0 1024 1024" enable-background="new 0 0 1024 1024" xml:space="preserve">
<g>
	<path fill="#FFFFFF" d="M380.75,905.75V774.5H512c35.547,0,66.312-12.641,92.281-37.938c25.969-25.971,38.969-57.078,38.969-93.312
		c0-35.547-13-66.312-38.969-92.281S547.547,512,512,512H249.5V380.75c0-72.453,25.625-134.312,76.906-185.594
		C376.984,143.891,438.844,118.25,512,118.25h131.25V249.5H512c-36.234,0-67.344,13-93.312,38.969
		c-25.297,25.969-37.938,56.734-37.938,92.281H512c72.453,0,134.312,25.984,185.594,77.922
		C748.859,509.266,774.5,570.797,774.5,643.25c0,73.156-25.984,135.359-77.922,186.625C645.984,880.469,584.453,905.75,512,905.75
		H380.75z"/>
</g>
</svg>
