<?xml version="1.0" encoding="utf-8"?>
<!-- Generator: Adobe Illustrator 16.0.4, SVG Export Plug-In . SVG Version: 6.00 Build 0)  -->
<!DOCTYPE svg PUBLIC "-//W3C//DTD SVG 1.1//EN" "http://www.w3.org/Graphics/SVG/1.1/DTD/svg11.dtd">
<svg version="1.1" id="Ebene_1" xmlns="http://www.w3.org/2000/svg" xmlns:xlink="http://www.w3.org/1999/xlink" x="0px" y="0px"
	 width="100px" height="100px" viewBox="175 -5 100 100" enable-background="new 175 -5 100 100" xml:space="preserve">
<path d="M184.238,39.167c-3.219,0-5.904,2.612-5.904,5.833c0,3.221,2.685,5.833,5.904,5.833c3.222,0,5.833-2.611,5.833-5.833
	S187.459,39.167,184.238,39.167z M184.238,10c-3.219,0-5.904,2.612-5.904,5.833c0,3.221,2.685,5.833,5.904,5.833
	c3.222,0,5.833-2.612,5.833-5.833C190.071,12.612,187.459,10,184.238,10z M184.238,68.333c-3.219,0-5.904,2.613-5.904,5.834
	c0,3.22,2.685,5.833,5.904,5.833c3.222,0,5.833-2.612,5.833-5.833C190.071,70.945,187.459,68.333,184.238,68.333z M270.208,12.917
	h-67.083c-0.806,0-1.458,0.653-1.458,1.458v2.917c0,0.806,0.653,1.458,1.458,1.458h67.083c0.807,0,1.459-0.653,1.459-1.458v-2.917
	C271.667,13.569,271.015,12.917,270.208,12.917z M270.208,42.083h-67.083c-0.806,0-1.458,0.652-1.458,1.458v2.917
	c0,0.807,0.653,1.459,1.458,1.459h67.083c0.807,0,1.459-0.652,1.459-1.459v-2.917C271.667,42.736,271.015,42.083,270.208,42.083z
	 M270.208,71.25h-67.083c-0.806,0-1.458,0.652-1.458,1.458v2.917c0,0.806,0.653,1.458,1.458,1.458h67.083
	c0.807,0,1.459-0.652,1.459-1.458v-2.917C271.667,71.902,271.015,71.25,270.208,71.25z"/>
</svg>
