<?xml version="1.0" encoding="UTF-8" standalone="no"?>
<svg
   xmlns:dc="http://purl.org/dc/elements/1.1/"
   xmlns:cc="http://creativecommons.org/ns#"
   xmlns:rdf="http://www.w3.org/1999/02/22-rdf-syntax-ns#"
   xmlns:svg="http://www.w3.org/2000/svg"
   xmlns="http://www.w3.org/2000/svg"
   xmlns:sodipodi="http://sodipodi.sourceforge.net/DTD/sodipodi-0.dtd"
   xmlns:inkscape="http://www.inkscape.org/namespaces/inkscape"
   viewBox="0 0 500 500"
   version="1.1"
   id="svg12"
   sodipodi:docname="pencil.svg"
   width="500"
   height="500"
   inkscape:version="1.0beta2 (2b71d25, 2019-12-03)"
   inkscape:export-filename="/Users/marko/Heleus/Heleus.Status/AppInfo/pencil.png"
   inkscape:export-xdpi="96"
   inkscape:export-ydpi="96">
  <style
     id="style20" />
  <metadata
     id="metadata18">
    <rdf:RDF>
      <cc:Work
         rdf:about="">
        <dc:format>image/svg+xml</dc:format>
        <dc:type
           rdf:resource="http://purl.org/dc/dcmitype/StillImage" />
        <dc:title />
      </cc:Work>
    </rdf:RDF>
  </metadata>
  <defs
     id="defs16" />
  <sodipodi:namedview
     inkscape:showpageshadow="true"
     borderlayer="false"
     showborder="true"
     inkscape:pagecheckerboard="false"
     inkscape:guide-bbox="true"
     showguides="true"
     pagecolor="#ffffff"
     bordercolor="#666666"
     inkscape:document-rotation="0"
     borderopacity="1"
     objecttolerance="10"
     gridtolerance="10"
     guidetolerance="10"
     inkscape:pageopacity="0"
     inkscape:pageshadow="2"
     inkscape:window-width="1965"
     inkscape:window-height="1074"
     id="namedview14"
     showgrid="false"
     inkscape:zoom="0.8117387"
     inkscape:cx="-51.552511"
     inkscape:cy="309.19188"
     inkscape:window-x="963"
     inkscape:window-y="204"
     inkscape:window-maximized="0"
     inkscape:current-layer="svg12" />
  <path
     d="m 435.35555,93.933583 -29.2891,-29.289105 c -19.52581,-19.525807 -51.18366,-19.526588 -70.71103,0 L 60.029265,339.96985 50.117532,429.17622 c -1.326565,11.9422 8.765637,22.03362 20.706277,20.70628 l 89.206371,-9.91173 275.32615,-275.32616 c 19.52503,-19.52658 19.52503,-51.18522 -7.8e-4,-70.711027 z M 360.98358,203.66029 185.93725,378.70662 V 351.56205 H 148.4372 V 314.062 H 121.29263 L 296.33896,139.01567 Z m -212.43154,212.43154 -46.08991,5.1211 -23.675809,-23.67582 5.121099,-46.0899 15.510178,-15.51018 h 27.144572 v 37.50005 h 37.50005 v 27.14457 z M 417.6774,146.96646 378.66094,185.98293 314.01633,121.33831 353.03279,82.321848 c 9.76954,-9.769548 25.5844,-9.771108 35.35551,0 l 29.2891,29.289102 c 9.77033,9.77033 9.77111,25.58363 0,35.35551 z"
     id="path10"
     inkscape:connector-curvature="0"
     style="stroke-width:0.781251" />
</svg>
