<?xml version="1.0" encoding="utf-8"?>
<!-- Generator: Adobe Illustrator 16.0.4, SVG Export Plug-In . SVG Version: 6.00 Build 0)  -->
<!DOCTYPE svg PUBLIC "-//W3C//DTD SVG 1.1//EN" "http://www.w3.org/Graphics/SVG/1.1/DTD/svg11.dtd">
<svg version="1.1" id="Ebene_1" xmlns="http://www.w3.org/2000/svg" xmlns:xlink="http://www.w3.org/1999/xlink" x="0px" y="0px"
	 width="100px" height="100px" viewBox="175 -5 100 100" enable-background="new 175 -5 100 100" xml:space="preserve">
<path d="M264.451,80.248l-20.155-20.154c-0.359-0.359-0.828-0.547-1.328-0.547h-1.609c5.359-5.797,8.641-13.531,8.641-22.046
	c0-17.952-14.546-32.499-32.499-32.499c-17.952,0-32.499,14.546-32.499,32.499c0,17.953,14.546,32.499,32.499,32.499
	c8.515,0,16.25-3.281,22.046-8.625v1.594c0,0.5,0.203,0.969,0.547,1.328l20.154,20.155c0.734,0.734,1.922,0.734,2.656,0l1.547-1.547
	C265.186,82.17,265.186,80.982,264.451,80.248z M217.5,64.999c-15.202,0-27.499-12.296-27.499-27.499
	c0-15.202,12.296-27.499,27.499-27.499c15.203,0,27.499,12.296,27.499,27.499C244.999,52.703,232.703,64.999,217.5,64.999z"/>
</svg>
