<?xml version="1.0" encoding="utf-8"?>
<!-- Generator: Adobe Illustrator 16.0.4, SVG Export Plug-In . SVG Version: 6.00 Build 0)  -->
<!DOCTYPE svg PUBLIC "-//W3C//DTD SVG 1.1//EN" "http://www.w3.org/Graphics/SVG/1.1/DTD/svg11.dtd">
<svg version="1.1" id="Ebene_1" xmlns="http://www.w3.org/2000/svg" xmlns:xlink="http://www.w3.org/1999/xlink" x="0px" y="0px"
	 width="100px" height="100px" viewBox="0 0 100 100" enable-background="new 0 0 100 100" xml:space="preserve">
<path d="M94.286,72.857H38.571v-7.143c0-2.375-1.911-4.286-4.286-4.286h-8.573c-2.375,0-4.286,1.911-4.286,4.286v7.143H5.712
	c-0.785,0-1.427,0.643-1.427,1.429v2.856c0,0.785,0.643,1.428,1.427,1.428h15.716v7.141c0,2.378,1.911,4.289,4.286,4.289h8.573
	c2.375,0,4.286-1.911,4.286-4.289V78.57h55.714c0.786,0,1.429-0.643,1.429-1.428v-2.856C95.715,73.5,95.072,72.857,94.286,72.857z
	 M32.857,84.286h-5.714V67.144h5.714V84.286z M94.286,21.428H50v-7.143C50,11.91,48.089,10,45.714,10h-8.573
	c-2.375,0-4.286,1.911-4.286,4.286v7.143H5.712c-0.785,0-1.427,0.643-1.427,1.43v2.856c0,0.786,0.642,1.429,1.427,1.429h27.145
	v7.143c0,2.375,1.911,4.286,4.286,4.286h8.573c2.375,0,4.285-1.911,4.285-4.287v-7.142h44.285c0.786,0,1.429-0.643,1.429-1.429
	v-2.856C95.715,22.071,95.072,21.428,94.286,21.428z M44.286,32.857h-5.714V15.714h5.714V32.857z M94.286,47.144H78.571v-7.143
	c0-2.375-1.91-4.286-4.285-4.286h-8.572c-2.375,0-4.286,1.911-4.286,4.286v7.143H5.712c-0.785,0-1.427,0.643-1.427,1.428v2.857
	c0,0.785,0.643,1.429,1.427,1.429h55.716v7.142c0,2.376,1.911,4.287,4.286,4.287h8.572c2.375,0,4.286-1.911,4.286-4.287v-7.142
	h15.715c0.785,0,1.428-0.644,1.428-1.429v-2.857C95.715,47.785,95.072,47.144,94.286,47.144z M72.857,58.571h-5.715V41.428h5.715
	V58.571z"/>
</svg>
