<?xml version="1.0" encoding="utf-8"?>
<!-- Generator: Adobe Illustrator 16.0.4, SVG Export Plug-In . SVG Version: 6.00 Build 0)  -->
<!DOCTYPE svg PUBLIC "-//W3C//DTD SVG 1.1//EN" "http://www.w3.org/Graphics/SVG/1.1/DTD/svg11.dtd">
<svg version="1.1" id="Ebene_1" xmlns="http://www.w3.org/2000/svg" xmlns:xlink="http://www.w3.org/1999/xlink" x="0px" y="0px"
	 width="100px" height="100px" viewBox="175 -5 100 100" enable-background="new 175 -5 100 100" xml:space="preserve">
<path d="M239,50c-4.484,0-6.641,2.5-14,2.5s-9.5-2.5-14-2.5c-11.594,0-21,9.406-21,21v6.5c0,4.141,3.359,7.5,7.5,7.5h55
	c4.141,0,7.5-3.359,7.5-7.5V71C260,59.406,250.594,50,239,50z M255,77.5c0,1.375-1.125,2.5-2.5,2.5h-55c-1.375,0-2.5-1.125-2.5-2.5
	V71c0-8.828,7.172-16,16-16c3.062,0,6.109,2.5,14,2.5c7.875,0,10.938-2.5,14-2.5c8.828,0,16,7.172,16,16V77.5z M225,45
	c11.047,0,20-8.953,20-20s-8.953-20-20-20s-20,8.953-20,20S213.953,45,225,45z M225,10c8.266,0,15,6.734,15,15s-6.734,15-15,15
	s-15-6.734-15-15S216.734,10,225,10z"/>
</svg>
